<svg width="366" height="279" viewBox="0 0 366 279" fill="none" xmlns="http://www.w3.org/2000/svg">
<rect width="366" height="279" rx="50" fill="#FACC15"/>
<path d="M107.4 213.4C97.9333 213.4 89.2 211.667 81.2 208.2C73.3333 204.6 66.8667 199.533 61.8 193L79.8 171.4C83.6667 176.467 87.7333 180.333 92 183C96.2667 185.533 100.867 186.8 105.8 186.8C119 186.8 125.6 179.067 125.6 163.6V97H76.4V71H157.8V161.8C157.8 179.133 153.533 192.067 145 200.6C136.467 209.133 123.933 213.4 107.4 213.4ZM235.803 213.4C224.603 213.4 213.87 211.933 203.603 209C193.336 205.933 185.07 202 178.803 197.2L189.803 172.8C195.803 177.067 202.87 180.6 211.003 183.4C219.27 186.067 227.603 187.4 236.003 187.4C242.403 187.4 247.536 186.8 251.403 185.6C255.403 184.267 258.336 182.467 260.203 180.2C262.07 177.933 263.003 175.333 263.003 172.4C263.003 168.667 261.536 165.733 258.603 163.6C255.67 161.333 251.803 159.533 247.003 158.2C242.203 156.733 236.87 155.4 231.003 154.2C225.27 152.867 219.47 151.267 213.603 149.4C207.87 147.533 202.603 145.133 197.803 142.2C193.003 139.267 189.07 135.4 186.003 130.6C183.07 125.8 181.603 119.667 181.603 112.2C181.603 104.2 183.736 96.9333 188.003 90.4C192.403 83.7333 198.936 78.4667 207.603 74.6C216.403 70.6 227.403 68.6 240.603 68.6C249.403 68.6 258.07 69.6667 266.603 71.8C275.136 73.8 282.67 76.8667 289.203 81L279.203 105.6C272.67 101.867 266.136 99.1333 259.603 97.4C253.07 95.5333 246.67 94.6 240.403 94.6C234.136 94.6 229.003 95.3333 225.003 96.8C221.003 98.2667 218.136 100.2 216.403 102.6C214.67 104.867 213.803 107.533 213.803 110.6C213.803 114.2 215.27 117.133 218.203 119.4C221.136 121.533 225.003 123.267 229.803 124.6C234.603 125.933 239.87 127.267 245.603 128.6C251.47 129.933 257.27 131.467 263.003 133.2C268.87 134.933 274.203 137.267 279.003 140.2C283.803 143.133 287.67 147 290.603 151.8C293.67 156.6 295.203 162.667 295.203 170C295.203 177.867 293.003 185.067 288.603 191.6C284.203 198.133 277.603 203.4 268.803 207.4C260.136 211.4 249.136 213.4 235.803 213.4Z" fill="black"/>
</svg>
